<svg id="fc5613a9-446e-4dc3-a3a6-8629639193df" data-name="Layer 1" xmlns="http://www.w3.org/2000/svg" viewBox="0 0 31.4717 30.4775">
  <g>
    <polygon points="25.956 14.092 25.956 26.56 18.291 26.56 18.291 18.895 13.181 18.895 13.181 26.56 5.516 26.56 5.516 14.092 15.736 3.872 25.956 14.092" style="fill: #ff7150"/>
    <path d="M25.9561,30.4316H5.5156A5.5224,5.5224,0,0,1,0,24.9155V5.5161A5.5224,5.5224,0,0,1,5.5156,0H25.9561a5.5224,5.5224,0,0,1,5.5156,5.5161V24.9155A5.5224,5.5224,0,0,1,25.9561,30.4316ZM5.5156,2A3.52,3.52,0,0,0,2,5.5161V24.9155a3.52,3.52,0,0,0,3.5156,3.5161H25.9561a3.52,3.52,0,0,0,3.5156-3.5161V5.5161A3.52,3.52,0,0,0,25.9561,2Z" style="fill: #ff7150"/>
  </g>
</svg>
