<svg id="aeda92b5-c845-4699-abcc-db8ad78235aa" data-name="Layer 1" xmlns="http://www.w3.org/2000/svg" viewBox="0 0 143.71 38.8458">
  <g>
    <path d="M1.5,32.4058H34.86c-.05.05-.11.12-.17.18a4.8257,4.8257,0,0,0-1.19,2.82H1.5a1.5,1.5,0,0,1,0-3Z" style="fill: #ff7150"/>
    <path d="M39.73,33.8358a2.5477,2.5477,0,0,1,.57,1.57H35.51a2.7688,2.7688,0,0,1,.68-1.49,2.2651,2.2651,0,0,1,1.79-.8A2.1438,2.1438,0,0,1,39.73,33.8358Z" style="fill: #ff7150"/>
    <path d="M41.14,32.4058h.04c0,.01-.01.02-.01.03Z" style="fill: #ff7150"/>
    <path d="M44.58,32.4058a25.8687,25.8687,0,0,1-1.24,3H42c.26-.48.47-.89.62-1.23q.255-.6.6-1.5l.08-.27Z" style="fill: #ff7150"/>
    <path d="M54.55,32.4058v3h-9c.32-.71.62-1.49.92-2.36l.01-.05.02-.04.16-.55Z" style="fill: #ff7150"/>
    <rect x="56.55" y="32.4058" width="4.9" height="3" style="fill: #ff7150"/>
    <path d="M143.71,33.9058a1.498,1.498,0,0,1-1.5,1.5H63.45v-3h78.76A1.4979,1.4979,0,0,1,143.71,33.9058Z" style="fill: #ff7150"/>
    <g>
      <path d="M1.5473,10.4775v-.82l4.1792-.44,2.8193-.74.28.58v2.6992h.08q2.3789-3.479,5.7388-3.479a5.764,5.764,0,0,1,2.749.67,3.9222,3.9222,0,0,1,1.33,1.16,6.031,6.031,0,0,1,.94,1.91h.04q2.6792-3.7383,6.2382-3.7388a7,7,0,0,1,1.36.13,4.8152,4.8152,0,0,1,1.43.57,4.644,4.644,0,0,1,1.33,1.14,5.84,5.84,0,0,1,.94,1.97,10.3272,10.3272,0,0,1,.38,2.9492v12.897l2.06.2v.82H24.4218v-.82l2.04-.2V14.3364a8.5511,8.5511,0,0,0-.21-2.0293,4.3615,4.3615,0,0,0-.48-1.27,1.9423,1.9423,0,0,0-.67-.65,2.0993,2.0993,0,0,0-.64-.27,3.3345,3.3345,0,0,0-.54-.04,3.5317,3.5317,0,0,0-2.6094,1.4795,6.0314,6.0314,0,0,0-1.27,4.0591V27.9336l2.06.2v.82H13.0844v-.82l2.04-.2V14.3364a8.9994,8.9994,0,0,0-.2-2.0293,4.2009,4.2009,0,0,0-.47-1.27,1.9747,1.9747,0,0,0-.66-.65,2,2,0,0,0-.63-.27,3.328,3.328,0,0,0-.54-.04,3.2874,3.2874,0,0,0-2.4995,1.72,7.1034,7.1034,0,0,0-1.22,4.2187V27.9336l2.06.2v.82H1.9472v-.82l2.06-.2V10.4775Z" style="fill: #559aff"/>
      <path d="M53.29,8.8758v.82l-2.07.22-6.64,22.48a23.3224,23.3224,0,0,1-1.44,3.4,6.9078,6.9078,0,0,1-1.49,1.98,4.74,4.74,0,0,1-1.39.86,4.5485,4.5485,0,0,1-1.42.21,3.4407,3.4407,0,0,1-2.43-.84,2.7035,2.7035,0,0,1-.93-2.11,2.8786,2.8786,0,0,1,.71-1.98,2.2651,2.2651,0,0,1,1.79-.8,2.1438,2.1438,0,0,1,1.75.72,2.728,2.728,0,0,1,.59,1.78,2.62,2.62,0,0,1-.25.96,2.0166,2.0166,0,0,1-.65.84v.08a2.3628,2.3628,0,0,0,1.32-.49,4.6836,4.6836,0,0,0,1.12-1.35c.33-.59.58-1.08.76-1.48q.255-.6.6-1.5l.9-3.04-8.5-19.72-1.98-.22v-.82H43.1v.82l-2.16.22,5.2,13.04,3.92-13.04-2.2-.22v-.82Z" style="fill: #559aff"/>
      <path d="M54.0952,10.4775v-.82l4.1787-.44,2.8193-.74.28.58v2.5991h.08A7.1009,7.1009,0,0,1,63.853,8.998a5.9868,5.9868,0,0,1,3.0185-.72,5.2257,5.2257,0,0,1,.9805.1,6.2334,6.2334,0,0,1,1.209.39,6.8,6.8,0,0,1,1.33.7495,6.2517,6.2517,0,0,1,1.27,1.28,8.9528,8.9528,0,0,1,1.09,1.87,12.0692,12.0692,0,0,1,.75,2.6094,18.8613,18.8613,0,0,1,.29,3.4394,15.0229,15.0229,0,0,1-.56,4.189,11.138,11.138,0,0,1-1.64,3.4292,7.4807,7.4807,0,0,1-2.84,2.3594,9.0455,9.0455,0,0,1-4.0186.86,5.15,5.15,0,0,1-3.2792-1.02v8.898l2.06.2v.82H54.4946v-.82l2.06-.2V10.4775Zm7.3584,16.9961a3.6256,3.6256,0,0,0,2.4589,1.02,3.7313,3.7313,0,0,0,1.71-.38,4.0422,4.0422,0,0,0,1.2393-.94,4.9909,4.9909,0,0,0,.85-1.4692,11.4353,11.4353,0,0,0,.54-1.72,15.4142,15.4142,0,0,0,.28-1.93q.1-1.1192.12-1.8594t.02-1.76a23.4522,23.4522,0,0,0-.46-5.1884,5.5007,5.5007,0,0,0-1.1993-2.66,2.58,2.58,0,0,0-1.8593-.71,3.1019,3.1019,0,0,0-2.63,1.6392,6.59,6.59,0,0,0-1.0693,3.6792Z" style="fill: #559aff"/>
      <path d="M76.269,2V1.18l4.18-.44L83.268,0l.3594.58V27.9336l2.06.2v.82H76.6694v-.82l2.06-.2V2Z" style="fill: #559aff"/>
      <path d="M107.0219,19.0356a13.1335,13.1335,0,0,1,.3408-2.9594,11.756,11.756,0,0,1,1.0889-2.8892,10.7322,10.7322,0,0,1,1.82-2.4995,7.9414,7.9414,0,0,1,2.6494-1.7495,8.8286,8.8286,0,0,1,3.4385-.66,6.8565,6.8565,0,0,1,4.6094,1.56,4.7383,4.7383,0,0,1,1.8291,3.7187,2.6246,2.6246,0,0,1-.68,1.83,2.3838,2.3838,0,0,1-1.8594.75,2.4354,2.4354,0,0,1-1.8-.7,2.3852,2.3852,0,0,1-.6992-1.76,2.4772,2.4772,0,0,1,.6494-1.72,2.1486,2.1486,0,0,1,1.67-.72c.0928,0,.26.0137.5.04v-.1a4.41,4.41,0,0,0-.57-.7495,4.1353,4.1353,0,0,0-1.13-.75,3.9214,3.9214,0,0,0-1.7793-.4,3.6628,3.6628,0,0,0-2.8994,1.32,7.6221,7.6221,0,0,0-1.6,3.4091,23.284,23.284,0,0,0-.46,4.9488q0,9.2182,4.9189,9.2177a6.071,6.071,0,0,0,1.1895-.11,6.8059,6.8059,0,0,0,1.3-.43,4.7,4.7,0,0,0,1.49-1.08,9.9993,9.9993,0,0,0,1.4189-1.9194l.78.46q-2.4594,4.459-7.0381,4.459Q107.022,29.5532,107.0219,19.0356Z" style="fill: #559aff"/>
      <path d="M125.7573,18.9155a15.3953,15.3953,0,0,1,.3007-3.0493,11.66,11.66,0,0,1,.9795-2.8691,9.8373,9.8373,0,0,1,1.6592-2.4195,7.2694,7.2694,0,0,1,2.43-1.67,7.9784,7.9784,0,0,1,3.209-.6294,8.855,8.855,0,0,1,2.98.47,6.0946,6.0946,0,0,1,2.1992,1.31,6.9564,6.9564,0,0,1,1.46,2.0493,10.1312,10.1312,0,0,1,.83,2.62,17.7894,17.7894,0,0,1,.25,3.0893l-.54.5H130.8764v1.2193q0,8.7188,4.959,8.7182a6.3361,6.3361,0,0,0,5.6182-3.519l.78.4795a8.1045,8.1045,0,0,1-7.3379,4.3393q-4.6,0-6.8691-2.8393T125.7573,18.9155Zm5.1191-1.52,6.459-.2588q.06-1.0145.06-1.95a11.28,11.28,0,0,0-.69-4.437,2.4718,2.4718,0,0,0-3.9394-.9253,4.0606,4.0606,0,0,0-1.0694,1.8008,14.8567,14.8567,0,0,0-.57,2.5571A31.4209,31.4209,0,0,0,130.8764,17.396Z" style="fill: #559aff"/>
    </g>
    <polygon points="105.558 17.592 105.558 28.956 98.572 28.956 98.572 21.97 93.915 21.97 93.915 28.956 86.93 28.956 86.93 17.592 96.244 8.278 105.558 17.592" style="fill: #ff7150"/>
  </g>
</svg>
